{"title":"Once.Upon.a.Time.in.Anatolia.DVDRip.AC3.HORiZON-ArtSubs","uid":6941438,"size":2217268372,"categoryP":"video","categoryS":"movies","magnet":"?xt=urn:btih:466914a5038266e06fb1e2091e71db433831f89d&amp;dn=Once.Upon.a.Time.in.Anatolia.DVDRip.AC3.HORiZON-ArtSubs&amp;tr=udp%3A%2F%2Ftracker.openbittorrent.com%3A80&amp;tr=udp%3A%2F%2Fopen.demonii.com%3A1337&amp;tr=udp%3A%2F%2Ftracker.coppersurfer.tk%3A6969&amp;tr=udp%3A%2F%2Fexodus.desync.com%3A6969","seeders":1,"leechers":0,"uploader":"lletaif","files":3,"time":1326050197,"description":"Name: Once Upon a Time in Anatolia (2011)\n\nDirector: Nuri Bilge Ceylan\n\nWriters: Nuri Bilge Ceylan, Ebru Ceylan\n\nStars: Muhammet Uzuner, Yilmaz Erdogan and Taner Birsel\n\nLanguage: Turkey\n\nSubtitles: English\n\nIMDB: http://www.imdb.com/title/tt1827487/\n\nAward: Grand Prix of Jury in Cannes Film Festival 2011\n\n\nRip Spects:\n\n\nGeneral\nComplete name          : Once.Upon.a.Time.in.Anatolia.DVDRip.AC3.HORiZON-ArtSubs.avi\nFormat                           : AVI\nFormat/Info                      : Audio Video Interleave\nFormat profile                   : OpenDML\nFile size                        : 2.05 GiB\nDuration                         : 2h 30mn\nOverall bit rate                 : 1 945 Kbps\n\nVideo\nID                               : 0\nFormat                           : MPEG-4 Visual\nFormat profile                   : Advanced Simple@L5\nFormat settings, BVOP            : 2\nFormat settings, QPel            : No\nFormat settings, GMC             : No warppoints\nFormat settings, Matrix          : Custom\nCodec ID                         : XVID\nCodec ID/Hint                    : XviD\nDuration                         : 2h 30mn\nBit rate                         : 1 484 Kbps\nWidth                            : 720 pixels\nHeight                           : 304 pixels\nDisplay aspect ratio             : 2.35:1\nFrame rate                       : 25.000 fps\nColor space                      : YUV\nChroma subsampling               : 4:2:0\nBit depth                        : 8 bits\nScan type                        : Progressive\nCompression mode                 : Lossy\nBits/(Pixel*Frame)               : 0.271\nStream size                      : 1.56 GiB (76%)\nWriting library                  : XviD 64\n\nAudio\nID                               : 1\nFormat                           : AC-3\nFormat/Info                      : Audio Coding 3\nMode extension                   : CM (complete main)\nCodec ID                         : 2000\nDuration                         : 2h 30mn\nBit rate mode                    : Constant\nBit rate                         : 448 Kbps\nChannel(s)                       : 6 channels\nChannel positions                : Front: L C R, Side: L R, LFE\nSampling rate                    : 48.0 KHz\nBit depth                        : 16 bits\nCompression mode                 : Lossy\nStream size                      : 483 MiB (23%)\nAlignment                        : Split accross interleaves\nInterleave, duration             : 40 ms (1.00 video frame)\nInterleave, preload duration     : 500 ms\n\n","torrent":{"xt":"urn:btih:466914a5038266e06fb1e2091e71db433831f89d","amp;dn":"Once.Upon.a.Time.in.Anatolia.DVDRip.AC3.HORiZON-ArtSubs","amp;tr":["udp%3A%2F%2Ftracker.openbittorrent.com%3A80","udp%3A%2F%2Fopen.demonii.com%3A1337","udp%3A%2F%2Ftracker.coppersurfer.tk%3A6969","udp%3A%2F%2Fexodus.desync.com%3A6969"],"infoHash":"466914a5038266e06fb1e2091e71db433831f89d","infoHashBuffer":{"type":"Buffer","data":[70,105,20,165,3,130,102,224,111,177,226,9,30,113,219,67,56,49,248,157]},"announce":[],"urlList":[]}}